<svg xmlns="http://www.w3.org/2000/svg" width="180" height="180" viewBox="0 0 180 180" fill="none"><path fill-rule="evenodd" clip-rule="evenodd" d="M97.0743 107.537C97.0041 107.466 96.9419 107.389 96.8694 107.319C95.1848 105.686 93.0843 104.78 90.9339 104.573V87.5768C93.2549 87.3549 95.5108 86.3213 97.24 84.4674C100.214 81.2797 100.752 76.643 98.9293 72.9227L114.224 62.5927C115.059 63.6443 116.087 64.5129 117.245 65.1513L97.0743 107.537ZM65.692 62.6839L81.0001 73.0239C79.1538 76.9088 79.871 81.7149 83.1119 84.8426C84.8015 86.47 86.9046 87.3729 89.056 87.5778V104.574C86.8032 104.787 84.6165 105.776 82.9106 107.529L62.7455 65.1536C63.8899 64.5232 64.8842 63.6792 65.692 62.6839ZM96.8694 70.0774C95.1848 68.444 93.0843 67.5378 90.9339 67.3319V57.1413H112.047C112.083 57.5258 112.134 57.9124 112.215 58.2989C112.416 59.2753 112.755 60.1852 113.196 61.0215L97.9496 71.3196C97.6246 70.8848 97.2716 70.4653 96.8694 70.0774ZM67.9481 57.1413H89.056V67.3319C86.7343 67.5525 84.4778 68.5877 82.7502 70.442C82.4632 70.7504 82.2067 71.0761 81.9645 71.4091L66.7336 61.122C67.3939 59.9074 67.8197 58.5581 67.9481 57.1413ZM60.0529 22.6521C62.357 22.1551 64.3011 20.885 65.6913 19.1711L81.1967 29.6435C79.6311 32.6199 79.5989 36.2433 81.1924 39.2646L65.7023 49.7274C64.027 47.6628 61.5925 46.3192 58.9328 46.064V22.8201C59.3051 22.7845 59.678 22.7319 60.0529 22.6521ZM112.215 14.7855C112.424 15.8021 112.778 16.7502 113.247 17.6138L97.7673 28.07C97.6874 27.9685 97.6159 27.8627 97.5311 27.7632C93.9017 23.5264 87.5883 23.0882 83.4272 26.7755C82.9781 27.1754 82.5813 27.6115 82.22 28.0683L66.7336 17.6085C67.3939 16.3939 67.8197 15.0446 67.9481 13.6284H112.047C112.083 14.013 112.134 14.3986 112.215 14.7855ZM67.9415 55.263C67.9052 54.8754 67.854 54.4862 67.7728 54.096C67.5646 53.087 67.2133 52.1459 66.7482 51.2863L82.2216 40.8355C82.3021 40.9373 82.374 41.0437 82.4588 41.1429C84.2137 43.1884 86.5946 44.3405 89.056 44.577V55.263H67.9415ZM112.041 55.263H90.9339V44.577C92.9469 44.3857 94.9223 43.5826 96.564 42.1269C97.0121 41.729 97.409 41.2936 97.7706 40.8375L113.248 51.2919C112.592 52.5038 112.168 53.8508 112.041 55.263ZM114.289 49.729L98.7942 39.2629C100.358 36.2895 100.389 32.6625 98.7962 29.6408L114.295 19.1727C115.97 21.2309 118.4 22.5689 121.057 22.8254V46.0714C120.684 46.1079 120.311 46.1605 119.936 46.2413C117.628 46.7357 115.68 48.0085 114.289 49.729ZM122.935 46.064V22.8208C123.308 22.7845 123.683 22.7319 124.058 22.6521C129.464 21.4848 132.916 16.0879 131.777 10.5835C130.642 5.09016 125.331 1.5662 119.936 2.72854C115.539 3.67033 112.433 7.42251 112.041 11.7495H67.9415C67.9052 11.362 67.854 10.9734 67.7728 10.5835C66.6391 5.09016 61.3293 1.5662 55.9331 2.72854C50.5302 3.8859 47.0728 9.28811 48.2112 14.7855C49.1337 19.2559 52.8087 22.4166 57.0539 22.8254V46.0714C56.6813 46.1079 56.3077 46.1605 55.9331 46.2413C50.5302 47.399 47.0728 52.8009 48.2112 58.2989C49.3463 63.8 54.6493 67.3179 60.0529 66.1656C60.4448 66.0807 60.8234 65.9683 61.1936 65.8409L81.7299 108.995C79.0313 113.05 79.5057 118.604 83.1119 122.084C87.1172 125.942 93.4439 125.778 97.24 121.709C100.536 118.176 100.849 112.862 98.2616 108.991L118.798 65.8352C120.438 66.4024 122.24 66.5531 124.058 66.1656C129.464 64.9982 132.916 59.601 131.777 54.096C130.855 49.6332 127.176 46.4706 122.935 46.064Z" fill="white"></path><path fill-rule="evenodd" clip-rule="evenodd" d="M155.973 153.586H151.215V154.524C151.2 159.216 151.22 163.909 151.161 168.598C151.131 170.887 149.838 172.468 147.62 172.878C146.395 173.106 145.1 173.129 143.858 173.026C141.163 172.796 139.569 171.057 139.539 168.323C139.486 163.705 139.506 159.082 139.501 154.459V153.594H134.708C134.708 154.084 134.706 154.524 134.711 154.965C134.751 159.819 134.651 164.679 134.888 169.522C135.05 172.861 136.809 175.357 139.993 176.536C143.316 177.771 146.729 177.763 150.1 176.784C152.885 175.981 154.793 174.124 155.492 171.22C155.796 169.936 155.934 168.587 155.954 167.261C156.006 162.972 155.973 158.679 155.973 154.387V153.586ZM15.8632 164.361C14.7828 163.862 13.6202 163.55 12.4849 163.182C11.0004 162.695 9.48096 162.314 8.03884 161.725C7.52237 161.513 7.01828 160.892 6.81618 160.338C6.45191 159.352 7.08322 158.328 8.20099 157.848C9.63812 157.229 11.1651 157.142 12.682 157.34C14.4959 157.577 16.2923 157.934 18.1985 158.256C18.3557 157.159 18.5478 155.944 18.6775 154.72C18.695 154.583 18.4005 154.309 18.2159 154.266C16.654 153.902 15.0947 153.451 13.5079 153.266C11.1651 152.988 8.81219 153.051 6.55669 153.908C3.81217 154.951 2.20046 157.183 2.13559 160.077C2.06822 162.96 3.60018 164.779 6.08522 165.824C7.47744 166.407 8.95949 166.766 10.3941 167.258C11.6067 167.676 12.8592 168.026 13.9919 168.61C15.2544 169.259 15.4315 170.691 14.5707 171.845C13.9644 172.662 13.0813 173.015 12.1406 173.171C9.04182 173.676 6.11012 173.053 3.28576 171.738C3.07118 171.641 2.84912 171.548 2.58963 171.434C2.38255 172.857 2.18547 174.168 1.99585 175.49C2.06072 175.536 2.11316 175.587 2.17055 175.614C6.06278 177.471 10.1022 177.97 14.2614 176.825C16.5394 176.2 18.3307 174.861 19.1765 172.505C20.434 168.993 19.199 165.903 15.8632 164.361ZM130.564 164.632H126.408V165.422C126.408 167.603 126.38 169.787 126.427 171.968C126.44 172.583 126.213 172.78 125.694 172.884C123.84 173.241 121.984 173.3 120.123 173.02C117.755 172.659 116.128 171.248 115.624 168.966C115.09 166.544 115.068 164.084 115.617 161.652C116.081 159.619 117.326 158.241 119.332 157.722C120.327 157.464 121.37 157.343 122.401 157.294C124.856 157.176 127.251 157.611 129.641 158.402C129.801 157.146 129.938 155.983 130.095 154.824C130.15 154.436 130.058 154.25 129.653 154.126C125.804 152.957 121.906 152.729 117.994 153.644C114.491 154.464 112.006 156.567 110.916 160.124C109.973 163.206 109.963 166.36 110.639 169.499C111.195 172.092 112.485 174.231 114.776 175.626C116.465 176.651 118.321 177.115 120.27 177.302C123.566 177.615 126.789 177.346 129.948 176.297C130.447 176.13 130.609 175.885 130.607 175.352C130.584 172.019 130.599 168.688 130.594 165.355C130.594 165.124 130.574 164.897 130.564 164.632ZM101.881 169.254C101.657 169.007 101.495 168.848 101.355 168.674C97.4528 163.841 93.5406 159.011 89.6534 154.163C89.2991 153.72 88.9523 153.509 88.3859 153.53C87.2931 153.573 86.1977 153.543 85.1124 153.543V176.923H89.3615V160.68C89.4962 160.777 89.5361 160.797 89.5636 160.83C93.9024 166.092 98.2338 171.357 102.575 176.616C102.695 176.767 102.882 176.956 103.044 176.96C104.05 176.992 105.058 176.977 106.063 176.977V153.597H101.881V169.254ZM22.7943 157.831H30.3693V176.953H35.1896V157.801H42.737V153.592H22.7943V157.831ZM164.828 172.852V166.718H175.524V163.02H164.848V157.668H177.431V153.603H160.085V176.948H177.994V172.852H164.828ZM60.3719 153.586H55.6887V176.941H72.4003V172.727H60.3719V153.586ZM81.0106 153.595H76.2501V176.935H81.0106V153.595ZM51.5868 153.585H46.8388V176.914H51.5868V153.585Z" fill="white"></path></svg>